# Blender 4.4.3
# www.blender.org
mtllib Untitled.mtl
o Cube
v -0.171777 2.365163 0.810394
v -0.141734 2.358099 0.816227
v -0.979743 0.144063 0.810393
v -0.949700 0.136999 0.816227
v -0.121437 2.380149 0.844096
v -0.949421 0.107031 0.844096
v -0.182955 2.400655 0.844096
v -0.155614 2.475844 0.844096
v -0.019238 2.415824 0.883793
v -1.000686 0.134372 0.844096
v -1.041698 0.045512 0.844096
v -0.898156 -0.016006 0.844096
v -0.000000 0.000000 0.000000
v -0.000000 0.000000 0.000000
v -0.000000 0.000000 0.000000
v -0.000000 0.000000 0.000000
v -0.000000 0.000000 0.000000
v -0.000000 0.000000 0.000000
v -0.000000 0.000000 0.000000
v -0.000000 0.000000 0.000000
v -0.949421 0.107031 0.943778
v -0.121750 2.368289 0.983476
v -0.182955 2.400655 0.943778
v -0.155614 2.475844 0.943778
v -0.019238 2.415824 0.983476
v -1.000686 0.134372 0.943778
v -1.041698 0.045512 0.943778
v -0.898156 -0.016006 0.943778
v -1.004745 0.127182 0.844096
v -0.176761 2.400301 0.844096
v -0.176761 2.400301 0.943778
v -1.004745 0.127182 0.943778
v -1.118841 -0.134488 0.844096
v -0.975298 -0.196006 0.844096
v -1.118841 -0.134488 0.943778
v -0.975611 -0.207865 0.983476
v -0.949700 0.145201 -0.000000
v -0.175984 2.373315 0.000000
v -0.983950 0.152215 -0.000000
v -0.141734 2.366301 0.000000
v -0.182955 2.408857 0.000000
v -0.155614 2.484046 0.000000
v -0.020802 2.424585 0.000000
v -1.000686 0.142574 -0.000000
v -1.041698 0.053715 -0.000000
v -0.900032 -0.019104 -0.000000
v -1.000686 0.142564 -0.000000
v -0.949421 0.115235 -0.000000
v -0.121437 2.388351 0.000000
v -0.171777 2.365163 -0.810393
v -0.141734 2.358099 -0.816227
v -0.979743 0.144063 -0.810393
v -0.949700 0.136999 -0.816227
v -0.121437 2.380149 -0.844095
v -0.949421 0.107031 -0.844096
v -0.182955 2.400655 -0.844095
v -0.155614 2.475844 -0.844095
v -0.019238 2.415824 -0.883793
v -1.000686 0.134372 -0.844096
v -1.041698 0.045512 -0.844096
v -0.898155 -0.016006 -0.844096
v -0.949421 0.107031 -0.943778
v -0.121749 2.368290 -0.983475
v -0.182955 2.400655 -0.943778
v -0.155614 2.475844 -0.943778
v -0.019238 2.415824 -0.983475
v -1.000686 0.134372 -0.943778
v -1.041698 0.045512 -0.943778
v -0.898155 -0.016006 -0.943778
v -1.004745 0.127182 -0.844096
v -0.176761 2.400301 -0.844095
v -0.176761 2.400301 -0.943778
v -1.004745 0.127182 -0.943778
v -1.118841 -0.134488 -0.844096
v -0.975298 -0.196006 -0.844096
v -1.118841 -0.134488 -0.943778
v -0.975610 -0.207865 -0.983476
v 0.650950 -0.025800 1.000000
v -0.004185 2.404594 1.000000
v 0.650950 -0.025800 -1.000000
v -0.004185 2.404594 -1.000000
v 0.747328 0.002008 1.000000
v 0.092193 2.432402 1.000000
v 0.747328 0.002008 -1.000000
v 0.092193 2.432402 -1.000000
v 0.650950 -0.025800 0.875371
v -0.004185 2.404594 0.875371
v 0.747328 0.002008 0.875371
v 0.092193 2.432402 0.875371
v -0.004185 2.404594 -0.882850
v 0.747328 0.002008 -0.882850
v 0.650950 -0.025800 -0.882850
v 0.092193 2.432402 -0.882850
v 0.701093 -0.199591 0.875371
v 0.701093 -0.199591 1.000000
v 0.797472 -0.171783 -1.000000
v 0.701093 -0.199591 -1.000000
v 0.797472 -0.171783 -0.882850
v 0.797472 -0.171783 1.000000
v 0.797472 -0.171783 0.875371
v 0.701093 -0.199591 -0.882850
vn -0.9397 0.3418 0.0083
vn -0.1757 0.0639 0.9824
vn -1.0000 -0.0094 -0.0001
vn 0.2131 0.9770 0.0093
vn 0.9396 -0.3423 -0.0033
vn -0.8738 0.3181 0.3678
vn -0.9398 0.3417 0.0033
vn 0.4021 0.9155 0.0086
vn 0.9079 -0.4191 -0.0041
vn 0.4261 0.9047 0.0023
vn -0.9407 0.3392 0.0030
vn -0.0000 -0.0000 1.0000
vn 0.4028 0.9153 -0.0000
vn -0.9405 0.3399 -0.0000
vn -0.9333 0.3591 -0.0000
vn 0.9080 -0.4191 -0.0000
vn -0.9398 0.3417 -0.0000
vn -0.3423 -0.9396 -0.0000
vn -0.2424 0.0882 0.9662
vn -0.2459 0.5303 0.8114
vn -0.0000 -0.0000 -1.0000
vn -0.0224 -0.0093 0.9997
vn -0.0091 0.0196 -0.9998
vn -0.3826 -0.9228 -0.0463
vn -0.4706 -0.8824 -0.0000
vn -0.9396 0.3423 -0.0000
vn -0.2949 0.0994 0.9503
vn 0.4135 0.9094 0.0456
vn 0.4200 0.9064 0.0455
vn 0.0729 -0.1358 -0.9881
vn 0.9191 -0.3939 -0.0000
vn -0.9226 0.3855 0.0179
vn -0.2131 -0.9770 -0.0093
vn -0.4705 -0.8824 -0.0086
vn -0.3162 -0.9486 -0.0092
vn -0.7378 0.6750 0.0067
vn -0.9397 0.3418 -0.0083
vn -0.1757 0.0639 -0.9824
vn -1.0000 -0.0094 0.0001
vn 0.2131 0.9770 -0.0093
vn 0.9396 -0.3423 0.0033
vn -0.8738 0.3181 -0.3678
vn -0.9398 0.3417 -0.0033
vn 0.4021 0.9155 -0.0086
vn 0.9079 -0.4191 0.0041
vn 0.4261 0.9047 -0.0023
vn -0.9407 0.3392 -0.0030
vn -0.2424 0.0882 -0.9662
vn -0.2459 0.5303 -0.8114
vn -0.0224 -0.0093 -0.9997
vn -0.0091 0.0196 0.9998
vn -0.3826 -0.9228 0.0463
vn -0.2949 0.0994 -0.9503
vn 0.4135 0.9094 -0.0456
vn 0.4200 0.9064 -0.0455
vn 0.0729 -0.1358 0.9881
vn -0.9226 0.3855 -0.0179
vn -0.2131 -0.9770 0.0093
vn -0.4705 -0.8824 0.0086
vn -0.3162 -0.9486 0.0092
vn -0.7378 0.6750 -0.0067
vn -0.9655 -0.2603 -0.0000
vn 0.9655 0.2603 -0.0000
vn -0.2772 0.9608 -0.0000
vn 0.2772 -0.9608 -0.0000
vn 0.9608 0.2772 -0.0000
vn -0.9608 -0.2772 -0.0000
vt 0.744610 0.000000
vt 0.744610 0.312863
vt 0.619167 0.314228
vt 0.619167 0.001365
vt 0.994392 0.416650
vt 0.999177 0.417218
vt 0.999177 0.783054
vt 0.994392 0.782486
vt 0.004314 0.733220
vt 0.130659 0.731975
vt 0.130659 0.736533
vt -0.000000 0.737779
vt 0.283805 0.840451
vt 0.288561 0.840441
vt 0.288561 0.965884
vt 0.284432 0.966795
vt 0.744711 0.721503
vt 0.744711 0.416650
vt 0.875370 0.417874
vt 0.875370 0.722727
vt 0.004314 0.420357
vt -0.000000 0.417621
vt 0.974470 0.562739
vt 0.973225 0.432080
vt 0.983817 0.432080
vt 0.985062 0.562739
vt 0.917382 0.152234
vt 0.917013 0.021575
vt 0.934507 0.015430
vt 0.934670 0.152234
vt 0.297763 0.563710
vt 0.297762 0.563710
vt 0.296540 0.694369
vt 0.284980 0.694369
vt 0.286203 0.563710
vt 0.261688 0.840459
vt 0.261318 0.709799
vt 0.279806 0.709799
vt 0.279389 0.840459
vt 0.461818 0.761160
vt 0.331159 0.760746
vt 0.325014 0.418027
vt 0.461818 0.416650
vt 0.667882 0.344539
vt 0.643740 0.344554
vt 0.643740 0.314242
vt 0.667882 0.314228
vt 0.917013 0.006145
vt 0.934507 -0.000000
vt 0.315728 0.760746
vt 0.309584 0.418027
vt 0.297763 0.417621
vt 0.296540 0.709799
vt 0.284980 0.709799
vt 0.973225 0.416650
vt 0.983817 0.416650
vt 0.995116 0.276748
vt 0.995116 0.292178
vt 0.986843 0.292178
vt 0.986843 0.276748
vt 0.680631 0.391778
vt 0.692990 0.392560
vt 0.680631 0.415128
vt 0.693720 0.403550
vt 0.643324 0.361456
vt 0.634371 0.360689
vt 0.643740 0.346314
vt 0.619588 0.346304
vt 0.894480 0.390205
vt 0.894480 0.002028
vt 0.907917 0.374560
vt 0.942270 0.816857
vt 0.929851 0.428952
vt 0.942270 0.416650
vt 0.985062 0.699543
vt 0.994286 0.699543
vt 0.994084 0.721118
vt 0.985062 0.714973
vt 0.987562 0.276748
vt 0.987562 0.292178
vt 0.957700 0.416650
vt 0.957700 0.736808
vt 0.942270 0.736808
vt 0.942270 0.416650
vt 0.904422 0.000000
vt 0.917013 0.374250
vt 0.690097 0.333519
vt 0.690677 0.355094
vt 0.683391 0.355094
vt 0.683391 0.339664
vt 0.306869 0.417624
vt 0.306869 0.792090
vt 0.297763 0.792087
vt 0.297763 0.417621
vt 0.662150 0.413360
vt 0.643669 0.412863
vt 0.644084 0.397439
vt 0.662150 0.391778
vt 0.619167 0.314228
vt 0.643740 0.316001
vt 0.261318 0.694369
vt 0.331159 0.785749
vt 0.309584 0.787540
vt 0.293542 0.962490
vt 0.289000 0.961583
vt 0.288561 0.836140
vt 0.293754 0.836145
vt 0.880259 0.386613
vt 0.881732 0.012150
vt 0.871707 0.012384
vt 0.871749 -0.000000
vt 0.894480 0.001602
vt 0.894480 0.403595
vt 0.870052 0.400406
vt 0.871367 0.385315
vt 0.878649 0.382262
vt 0.873298 0.383034
vt 0.874582 0.017196
vt 0.879933 0.016424
vt 0.871368 0.385316
vt 0.987668 0.146089
vt 0.995222 0.146089
vt 0.994392 0.568884
vt 0.985168 0.568884
vt 0.279806 0.840459
vt 0.280442 0.971117
vt 0.870052 0.001365
vt 0.870052 0.314228
vt 1.000000 0.000000
vt 1.000000 0.365840
vt 0.995222 0.366407
vt 0.995222 0.000567
vt 0.257004 0.733220
vt 0.261318 0.737779
vt 0.283916 0.714105
vt 0.288049 0.715000
vt 0.614052 0.722727
vt 0.614052 0.417874
vt 0.257004 0.420357
vt 0.261318 0.417621
vt 0.983817 0.693398
vt 0.973225 0.693398
vt 0.934507 0.289038
vt 0.917013 0.282893
vt 0.284980 0.433051
vt 0.296540 0.433051
vt 0.279806 0.971118
vt 0.261318 0.971118
vt 0.598622 0.418027
vt 0.592477 0.760746
vt 0.643669 0.391768
vt 0.643669 0.361456
vt 0.667821 0.361466
vt 0.667821 0.391778
vt 0.934507 0.304468
vt 0.917013 0.298323
vt 0.614052 0.418027
vt 0.607907 0.760746
vt 0.284980 0.417621
vt 0.296540 0.417621
vt 0.983817 0.708829
vt 0.973225 0.708829
vt 0.995116 0.015430
vt 0.986843 0.015430
vt 0.986843 0.000000
vt 0.995116 0.000000
vt 0.696433 0.361456
vt 0.696433 0.384757
vt 0.684074 0.362243
vt 0.683337 0.373179
vt 0.619583 0.408702
vt 0.619167 0.393559
vt 0.628532 0.407932
vt 0.643309 0.393545
vt 0.897911 0.806859
vt 0.884471 0.791213
vt 0.897911 0.418687
vt 0.934670 0.400192
vt 0.934670 0.000000
vt 0.947085 0.012297
vt 0.985062 0.438225
vt 0.985062 0.422795
vt 0.994085 0.416650
vt 0.994286 0.438225
vt 0.987562 0.015430
vt 0.987562 0.000000
vt 0.947085 0.000000
vt 0.962515 0.000000
vt 0.962515 0.320158
vt 0.947085 0.320158
vt 0.875370 0.790902
vt 0.888026 0.416650
vt 0.697383 0.355094
vt 0.690677 0.348950
vt 0.690677 0.333519
vt 0.697963 0.333519
vt 0.977741 0.000004
vt 0.986843 -0.000000
vt 0.986843 0.374461
vt 0.977741 0.374466
vt 0.662150 0.413361
vt 0.662150 0.391778
vt 0.680216 0.397439
vt 0.680631 0.412863
vt 0.619167 0.363248
vt 0.643669 0.361456
vt 0.261318 0.433051
vt 0.261318 0.417621
vt 0.614052 0.787540
vt 0.592477 0.785749
vt 0.293754 0.709799
vt 0.289210 0.710699
vt 0.279909 0.709799
vt 0.601033 0.388752
vt 0.601033 -0.000000
vt 0.619167 -0.000000
vt 0.619167 0.388752
vt 0.897911 0.806482
vt 0.898371 0.416916
vt 0.913884 0.416650
vt 0.913425 0.806216
vt 0.290292 0.389624
vt 0.290292 0.000000
vt 0.309584 0.000000
vt 0.309584 0.389624
vt 0.914343 0.806181
vt 0.913884 0.416650
vt 0.929391 0.416922
vt 0.929851 0.806452
vt 0.667882 0.314228
vt 0.683391 0.314245
vt 0.683391 0.342236
vt 0.667882 0.342219
vt 0.957700 0.706942
vt 0.973225 0.706942
vt 0.973225 0.726234
vt 0.957700 0.726234
vt 0.957700 0.434784
vt 0.973225 0.434784
vt 0.962515 -0.000000
vt 0.977741 0.000000
vt 0.977741 0.272158
vt 0.962515 0.272158
vt 0.018134 0.389624
vt 0.018134 0.000000
vt 0.309584 0.388752
vt 0.309584 -0.000000
vt 0.328875 -0.000000
vt 0.328875 0.388752
vt 0.000000 0.389624
vt 0.000000 0.000000
vt 0.018134 0.417621
vt 0.000000 0.417621
vt 0.957700 0.416650
vt 0.683391 0.314228
vt 0.698617 0.314228
vt 0.698617 0.333519
vt 0.683391 0.333519
vt 0.667882 0.342236
vt 0.683108 0.342236
vt 0.683108 0.360370
vt 0.667882 0.360370
vt 0.309584 0.417621
vt 0.290292 0.417621
vt 0.929391 0.834440
vt 0.913884 0.834168
vt 0.667821 0.361468
vt 0.683337 0.361456
vt 0.683337 0.389450
vt 0.667821 0.389461
vt 0.913884 0.834206
vt 0.898371 0.834472
vt 0.619167 0.416650
vt 0.601033 0.416650
vt 0.328875 0.416650
vt 0.309584 0.416650
s 0
usemtl Material
f 38/1/1 39/2/1 3/3/1 1/4/1
f 2/5/2 1/6/2 3/7/2 4/8/2
f 4/9/3 37/10/3 48/11/3 6/12/3
f 40/13/4 38/14/4 1/15/4 2/16/4
f 48/17/5 49/18/5 5/19/5 6/20/5
f 2/21/6 4/9/6 6/12/6 5/22/6
f 41/23/7 7/24/7 8/25/7 42/26/7
f 42/27/8 8/28/8 9/29/8 43/30/8
f 44/31/9 47/32/9 10/33/9 11/34/9 45/35/9
f 45/36/10 11/37/10 12/38/10 46/39/10
f 46/40/11 12/41/11 9/42/11 43/43/11
f 12/44/12 11/45/12 33/46/12 34/47/12
f 9/29/13 8/28/13 24/48/13 25/49/13
f 9/42/14 12/41/14 28/50/14 25/51/14
f 14/52/15 13/52/15 16/52/15 15/52/15
f 15/52/15 16/52/15 20/52/15 19/52/15
f 19/52/15 20/52/15 18/52/15 17/52/15
f 17/52/15 18/52/15 13/52/15 14/52/15
f 15/52/15 19/52/15 17/52/15 14/52/15
f 20/52/15 16/52/15 13/52/15 18/52/15
f 11/34/16 10/33/16 26/53/16 27/54/16
f 8/25/17 7/24/17 23/55/17 24/56/17
f 6/57/18 21/58/18 32/59/18 29/60/18
f 24/61/19 23/62/19 25/63/19
f 23/62/20 22/64/20 25/63/20
f 26/65/21 21/66/21 27/67/21
f 27/67/21 21/66/21 28/68/21
f 28/69/22 22/70/22 21/71/22
f 28/72/23 22/73/23 25/74/23
f 7/75/24 5/76/24 22/77/24 23/78/24
f 10/79/25 6/57/25 21/58/25 26/80/25
f 30/81/26 29/82/26 32/83/26 31/84/26
f 21/71/27 22/70/27 31/85/27 32/86/27
f 22/87/28 5/88/28 30/89/28 31/90/28
f 5/91/21 6/92/21 29/93/21 30/94/21
f 34/95/29 33/96/29 35/97/29 36/98/29
f 27/67/30 28/68/30 36/99/30 35/100/30
f 11/34/31 27/54/31 35/37/31 33/101/31
f 28/50/32 12/41/32 34/102/32 36/103/32
f 4/104/33 3/105/33 39/106/33 37/107/33
f 48/108/21 49/109/21 41/110/21 42/111/21 43/112/21 46/113/21 45/114/21 44/115/21
f 48/108/21 37/116/21 39/117/21 38/118/21 40/119/21 49/109/21
f 44/115/21 48/108/21 47/120/21
f 47/121/34 48/122/34 6/57/34 10/79/34
f 49/123/35 5/76/35 7/75/35 41/124/35
f 49/125/36 40/13/36 2/16/36 5/126/36
f 38/1/37 50/127/37 52/128/37 39/2/37
f 51/129/38 53/130/38 52/131/38 50/132/38
f 53/133/39 55/134/39 48/11/39 37/10/39
f 40/13/40 51/135/40 50/136/40 38/14/40
f 48/17/41 55/137/41 54/138/41 49/18/41
f 51/139/42 54/140/42 55/134/42 53/133/42
f 41/23/43 42/26/43 57/141/43 56/142/43
f 42/27/44 43/30/44 58/143/44 57/144/44
f 44/31/45 45/35/45 60/145/45 59/146/45 47/32/45
f 45/36/46 46/39/46 61/147/46 60/148/46
f 46/40/47 43/43/47 58/149/47 61/150/47
f 61/151/21 75/152/21 74/153/21 60/154/21
f 58/143/13 66/155/13 65/156/13 57/144/13
f 58/149/14 66/157/14 69/158/14 61/150/14
f 60/145/16 68/159/16 67/160/16 59/146/16
f 57/141/17 65/161/17 64/162/17 56/142/17
f 55/163/18 70/164/18 73/165/18 62/166/18
f 65/167/48 66/168/48 64/169/48
f 64/169/49 66/168/49 63/170/49
f 67/171/12 68/172/12 62/173/12
f 68/172/12 69/174/12 62/173/12
f 69/175/50 62/176/50 63/177/50
f 69/178/51 66/179/51 63/180/51
f 56/181/52 64/182/52 63/183/52 54/184/52
f 59/185/25 67/186/25 62/166/25 55/163/25
f 71/187/26 72/188/26 73/189/26 70/190/26
f 62/176/53 73/191/53 72/192/53 63/177/53
f 63/193/54 72/194/54 71/195/54 54/196/54
f 54/197/12 71/198/12 70/199/12 55/200/12
f 75/201/55 77/202/55 76/203/55 74/204/55
f 68/172/56 76/205/56 77/206/56 69/174/56
f 60/145/31 74/207/31 76/208/31 68/159/31
f 69/158/57 77/209/57 75/210/57 61/150/57
f 53/211/58 37/107/58 39/106/58 52/212/58
f 47/121/59 59/185/59 55/163/59 48/122/59
f 49/123/60 41/124/60 56/181/60 54/184/60
f 49/125/61 54/213/61 51/135/61 40/13/61
f 92/214/62 90/215/62 81/216/62 80/217/62
f 80/218/21 81/219/21 85/220/21 84/221/21
f 88/222/63 89/223/63 83/224/63 82/225/63
f 82/226/12 83/227/12 79/228/12 78/229/12
f 91/230/12 92/231/12 101/232/12 98/233/12
f 89/234/64 87/235/64 79/236/64 83/237/64
f 93/238/64 90/239/64 87/235/64 89/234/64
f 92/240/65 91/241/65 88/242/65 86/243/65
f 91/244/63 93/245/63 89/223/63 88/222/63
f 78/246/62 79/247/62 87/248/62 86/249/62
f 84/250/63 85/251/63 93/245/63 91/244/63
f 84/250/66 91/244/66 98/252/66 96/253/66
f 85/254/64 81/55/64 90/239/64 93/238/64
f 86/249/62 87/248/62 90/215/62 92/214/62
f 94/255/65 100/256/65 99/257/65 95/258/65
f 97/259/65 96/260/65 98/261/65 101/262/65
f 88/222/66 82/225/66 99/263/66 100/264/66
f 82/226/12 78/229/12 95/265/12 99/266/12
f 86/267/21 88/268/21 100/269/21 94/270/21
f 80/218/21 84/221/21 96/271/21 97/272/21
f 92/214/67 80/217/67 97/273/67 101/274/67
f 78/246/67 86/249/67 94/275/67 95/276/67
